<svg width="16" height="15" viewBox="0 0 16 15" fill="none" xmlns="http://www.w3.org/2000/svg">
<path d="M7.98817 15C7.25037 15 6.54308 14.9115 5.86631 14.7344C5.18953 14.5573 4.55159 14.3073 3.95248 13.9844C3.35337 13.6615 2.81527 13.2708 2.3382 12.8125C1.86113 12.3542 1.44508 11.8464 1.09005 11.2891C0.735022 10.7318 0.465976 10.1354 0.282914 9.5C0.0998521 8.86458 0.00554734 8.19792 0 7.5C0 6.80729 0.0943047 6.14323 0.282914 5.50781C0.471524 4.8724 0.737796 4.27344 1.08173 3.71094C1.42567 3.14844 1.84172 2.64323 2.32988 2.19531C2.81805 1.7474 3.35891 1.35677 3.95248 1.02344C4.54604 0.690104 5.18121 0.4375 5.85799 0.265625C6.53476 0.09375 7.24482 0.00520833 7.98817 0C8.72596 0 9.43325 0.0885417 10.11 0.265625C10.7868 0.442708 11.4247 0.692708 12.0239 1.01562C12.623 1.33854 13.1611 1.72917 13.6381 2.1875C14.1152 2.64583 14.5312 3.15365 14.8863 3.71094C15.2413 4.26823 15.5104 4.86458 15.6934 5.5C15.8765 6.13542 15.9708 6.80208 15.9763 7.5C15.9763 8.19271 15.882 8.85677 15.6934 9.49219C15.5048 10.1276 15.2385 10.7266 14.8946 11.2891C14.5507 11.8516 14.1346 12.3568 13.6465 12.8047C13.1583 13.2526 12.6174 13.6432 12.0239 13.9766C11.4303 14.3099 10.7951 14.5625 10.1183 14.7344C9.44157 14.9062 8.73151 14.9948 7.98817 15ZM7.98817 1C7.35022 1 6.73724 1.07812 6.14922 1.23438C5.56121 1.39062 5.01202 1.60938 4.50166 1.89062C3.99131 2.17188 3.52256 2.51042 3.09541 2.90625C2.66827 3.30208 2.30769 3.73958 2.01368 4.21875C1.71967 4.69792 1.48669 5.21615 1.31472 5.77344C1.14275 6.33073 1.05954 6.90625 1.06509 7.5C1.06509 8.09375 1.1483 8.66667 1.31472 9.21875C1.48114 9.77083 1.71413 10.2891 2.01368 10.7734C2.31324 11.2578 2.67382 11.6979 3.09541 12.0938C3.51701 12.4896 3.98299 12.8281 4.49334 13.1094C5.0037 13.3906 5.55566 13.6094 6.14922 13.7656C6.74279 13.9219 7.35577 14 7.98817 14C8.62056 14 9.23077 13.9219 9.81879 13.7656C10.4068 13.6094 10.9588 13.3906 11.4747 13.1094C11.9906 12.8281 12.4593 12.4896 12.8809 12.0938C13.3025 11.6979 13.6631 11.2604 13.9626 10.7812C14.2622 10.3021 14.4952 9.78385 14.6616 9.22656C14.828 8.66927 14.9112 8.09375 14.9112 7.5C14.9112 6.90625 14.828 6.33333 14.6616 5.78125C14.4952 5.22917 14.2622 4.71094 13.9626 4.22656C13.6631 3.74219 13.3025 3.30208 12.8809 2.90625C12.4593 2.51042 11.9933 2.17188 11.483 1.89062C10.9726 1.60938 10.4207 1.39062 9.82711 1.23438C9.23354 1.07812 8.62056 1 7.98817 1ZM7.45562 6H8.52071V11H7.45562V6ZM7.45562 4H8.52071V5H7.45562V4Z" fill="#673AB7"/>
</svg>
