<svg width="140" height="43" viewBox="0 0 140 43" fill="none" xmlns="http://www.w3.org/2000/svg">
<path d="M21.0178 42.295C32.6256 42.295 42.0356 32.9831 42.0356 21.4964C42.0356 10.0096 32.6256 0.697754 21.0178 0.697754C9.41 0.697754 0 10.0096 0 21.4964C0 32.9831 9.41 42.295 21.0178 42.295Z" fill="#673AB7"/>
<path d="M27.0148 20.1396H15.0225V22.8527H27.0148V20.1396Z" fill="white"/>
<path d="M8.51196 21.4965C8.51196 21.6103 8.51196 21.7225 8.5233 21.8348C8.69668 24.3458 10.9134 26.2427 13.4573 26.2427H19.477V28.9558H13.3099C12.6141 28.9666 11.9208 28.8726 11.2536 28.6768C8.24784 27.7885 5.68442 24.7306 5.68604 21.4115C5.68628 20.4128 5.89077 19.4244 6.28719 18.506C7.47331 15.748 10.3008 14.0371 13.3293 14.0371H19.477V16.7486H13.4573C10.9134 16.7486 8.69668 18.6471 8.5233 21.1581C8.51682 21.2704 8.51196 21.3826 8.51196 21.4965Z" fill="white"/>
<path d="M33.5337 21.4965C33.5337 21.6103 33.5337 21.7225 33.5224 21.8348C33.349 24.3458 31.1323 26.2427 28.5883 26.2427H22.5605V28.9558H28.7277C29.4218 28.9661 30.1135 28.8721 30.7791 28.6768C33.7849 27.7885 36.3483 24.7306 36.3467 21.4115C36.3464 20.4127 36.1419 19.4244 35.7455 18.506C34.5594 15.748 31.7318 14.0371 28.7034 14.0371H22.5605V16.7486H28.5802C31.1242 16.7486 33.3409 18.6471 33.5143 21.1581C33.5207 21.2704 33.5337 21.3826 33.5337 21.4965Z" fill="white"/>
<path d="M60.6068 19.7212L57.1344 31.7761H51.6348L45.4531 10.2896H50.951L54.6617 25.0255H54.7929L58.7385 10.2896H62.4751L66.4272 25.0319H66.5601L70.2691 10.296H75.7411L69.5594 31.7825H64.0793L60.6068 19.7212Z" fill="#673AB7"/>
<path d="M81.3135 12.8999C81.3135 13.441 81.1513 13.9699 80.8473 14.4197C80.5434 14.8694 80.1114 15.2198 79.6061 15.4265C79.1009 15.6332 78.545 15.6869 78.0088 15.5807C77.4727 15.4746 76.9804 15.2134 76.5944 14.8303C76.2084 14.4471 75.9459 13.9592 75.8402 13.4284C75.7345 12.8975 75.7904 12.3476 76.0007 11.8482C76.2111 11.3487 76.5664 10.9223 77.0218 10.6229C77.4772 10.3234 78.0121 10.1644 78.5589 10.166C78.9213 10.166 79.2802 10.2368 79.6149 10.3743C79.9496 10.5118 80.2537 10.7133 80.5096 10.9673C80.7655 11.2212 80.9682 11.5227 81.1061 11.8543C81.2441 12.186 81.3146 12.5413 81.3135 12.8999ZM76.1494 31.776H80.8063V18.4191H76.1494V31.776Z" fill="#673AB7"/>
<path d="M92.4146 32.1658C91.5851 32.1699 90.7638 32.003 90.0031 31.6759C89.2423 31.3488 88.5587 30.8685 87.9958 30.2657H87.9423V31.7761H83.3389V9.38525H87.9958V19.6956C89.1009 18.6277 90.5997 18.0296 92.4146 18.0296C96.3618 18.0296 99.1245 21.2044 99.1245 25.1105C99.1245 29.0165 96.3618 32.1658 92.4146 32.1658ZM91.021 21.9597C89.284 21.9597 87.8905 23.2617 87.8905 25.1105C87.8905 26.9336 89.2062 28.2341 91.021 28.2341C92.9153 28.2341 94.1775 26.9336 94.1775 25.1105C94.1775 23.2601 92.784 21.9597 91.021 21.9597Z" fill="#673AB7"/>
<path d="M105.702 12.9004C105.7 13.4392 105.537 13.9654 105.233 14.4127C104.93 14.8599 104.499 15.208 103.996 15.4131C103.492 15.6182 102.938 15.671 102.405 15.5649C101.871 15.4589 101.381 15.1986 100.996 14.8171C100.612 14.4355 100.35 13.9498 100.245 13.4213C100.139 12.8927 100.194 12.345 100.403 11.8474C100.612 11.3498 100.965 10.9245 101.417 10.6253C101.87 10.3262 102.403 10.1665 102.947 10.1665C103.309 10.1665 103.668 10.2373 104.003 10.3748C104.338 10.5123 104.642 10.7138 104.898 10.9677C105.154 11.2217 105.356 11.5232 105.494 11.8548C105.632 12.1864 105.703 12.5418 105.702 12.9004ZM100.546 31.7765H105.203V18.4196H100.546V31.7765Z" fill="#673AB7"/>
<path d="M107.727 18.4194H112.384V19.8257H112.446C113.497 18.7834 114.839 18.0298 116.313 18.0298C118.786 18.0298 122.233 19.2532 122.233 22.9765V31.7763H117.568V24.2224C117.568 22.8947 116.647 21.6184 115.147 21.6184C113.753 21.6184 112.392 22.9011 112.392 24.2224V31.7731H107.727V18.4194Z" fill="#673AB7"/>
<path d="M134.353 31.7763L131.379 28.0002L128.408 31.7763H122.777L128.539 24.798L123.592 18.4194H129.038L131.379 21.5173L133.722 18.4194H139.169L134.222 24.798L139.992 31.7763H134.353Z" fill="#673AB7"/>
</svg>
